<?xml version="1.0" encoding="UTF-8"?>
<svg id="Layer_2" data-name="Layer 2" xmlns="http://www.w3.org/2000/svg" viewBox="0 0 305.66 74.65">
  <defs>
    <style>
      .cls-1 {
        fill: #fff;
      }
    </style>
  </defs>
  <g id="Layer_1-2" data-name="Layer 1">
    <path class="cls-1" d="M62.17,9.4C42.72-7.64,12.64-.62,2.75,23.27c-5.99,14.48-1.98,31.64,9.8,41.97,19.44,17.05,49.53,10.02,59.41-13.87,5.99-14.48,1.98-31.64-9.8-41.97ZM62.16,52.74c-2.2,3.54-13.73,4.13-27.05-2.75-.31-.16-.43-.56-.24-.86l11.97-19.27c.18-.3.6-.37.88-.16,12.07,8.9,16.64,19.5,14.44,23.04ZM51.78,21.92l3.95-6.35c.2-.31.64-.38.92-.14,5.86,5.16,9.41,12.5,9.86,20.26.03.59-.74.84-1.08.35-3.32-4.75-8-9.39-13.49-13.34-.25-.18-.32-.52-.16-.78ZM25.98,63.42l3.95-6.35c.16-.26.5-.35.77-.2,5.97,3.17,12.2,5.31,17.93,6.19.58.09.71.89.16,1.12-7.16,3.03-15.31,3.1-22.53.13-.34-.14-.48-.57-.28-.88ZM25.93,10.47c7.16-3.03,15.31-3.1,22.52-.13.34.14.48.57.28.88l-3.95,6.35c-.16.26-.5.35-.77.2-5.97-3.17-12.19-5.31-17.93-6.19-.58-.09-.71-.89-.16-1.12ZM39.85,25.52l-11.97,19.27c-.18.3-.6.37-.88.16-12.07-8.9-16.64-19.5-14.44-23.03s13.73-4.13,27.05,2.75c.31.16.43.56.24.86ZM22.94,52.73l-3.95,6.35c-.2.31-.64.38-.92.14-5.86-5.16-9.4-12.5-9.85-20.26-.03-.59.74-.84,1.08-.35,3.32,4.75,8,9.39,13.49,13.34.25.18.32.52.16.78Z"/>
    <path class="cls-1" d="M104.84,7.52l-21.94,64.95c-.2.59.24,1.21.87,1.21h11.41c.4,0,.75-.26.87-.64l4.16-13.33c.12-.38.47-.64.87-.64h24.36c.4,0,.75.26.87.64l4.18,13.33c.12.38.47.64.87.64h11.98c.63,0,1.07-.62.87-1.21L122.19,7.51c-.13-.37-.47-.62-.87-.62h-15.62c-.39,0-.74.25-.87.62ZM104.91,48.61c-.62,0-1.06-.6-.87-1.19l8.26-26.5h1.84l8.31,26.49c.18.59-.26,1.19-.87,1.19h-16.67Z"/>
    <path class="cls-1" d="M160.61,7.28h-11.62c-.51,0-.92.41-.92.92v12.88c0,.51-.41.92-.92.92h-7.95c-.51,0-.92.41-.92.92v7.75c0,.51.41.92.92.92h7.95c.51,0,.92.41.92.92v31.95c0,5.1,4.14,9.24,9.24,9.24h17.14c.51,0,.92-.41.92-.92v-7.75c0-.51-.41-.92-.92-.92h-12.01c-.51,0-.92-.41-.92-.92v-30.69c0-.51.41-.92.92-.92h12.01c.51,0,.92-.41.92-.92v-7.75c0-.51-.41-.92-.92-.92h-12.01c-.51,0-.92-.41-.92-.92v-12.88c0-.51-.41-.92-.92-.92Z"/>
    <path class="cls-1" d="M193.89,3.79h-11.52c-.51,0-.92.41-.92.92v60.64c0,5.55,2.74,8.33,8.22,8.33h14.18c.51,0,.92-.41.92-.92v-7.75c0-.51-.41-.92-.92-.92h-8.14c-.51,0-.92-.41-.92-.92V4.71c0-.51-.41-.92-.92-.92Z"/>
    <path class="cls-1" d="M231.52,21.02c-12.1,0-19.49,4.8-22.16,14.4-.16.58.3,1.18.9,1.18h12.45v-.39c0-.64.29-1.34.87-2.08.58-.74,1.5-1.41,2.76-1.99,1.25-.58,2.88-.87,4.88-.87,3.03,0,5.26.77,6.68,2.32,1.42,1.55,2.13,4,2.13,7.35v1.55l-13.84,1.35c-6.07.58-10.68,2.21-13.84,4.89-3.17,2.68-4.74,6.37-4.74,11.08s1.45,8.2,4.36,10.84c2.9,2.65,6.9,3.97,12,3.97,4,0,7.26-.84,9.78-2.52,2.51-1.68,4.36-4.1,5.51-7.26h1.84v7.89c0,.51.41.92.92.92h10.47c.51,0,.92-.41.92-.92v-31.99c0-6.45-1.86-11.35-5.57-14.71-3.71-3.36-9.14-5.03-16.31-5.03ZM240.03,56.54c0,5.42-3.36,8.13-10.07,8.13-2.71,0-4.82-.5-6.34-1.5-1.51-1-2.27-2.41-2.27-4.21v-.87c0-1.87.69-3.29,2.08-4.26,1.39-.97,3.66-1.61,6.82-1.94l8.78-.78c.54-.05,1,.37,1,.91v4.52Z"/>
    <path class="cls-1" d="M302.04,48.66c-2.43-2.29-6.28-3.95-11.57-4.99l-11.13-2.23c-2.26-.52-3.88-1.14-4.84-1.89-.97-.74-1.46-1.79-1.46-3.15,0-1.8.81-3.16,2.42-4.06,1.61-.9,3.91-1.35,6.88-1.35,2.45,0,4.36.29,5.71.87,1.35.58,2.32,1.28,2.91,2.08.58.81.87,1.56.87,2.27v.39h12.26c.6,0,1.06-.59.9-1.18-1.31-4.82-3.68-8.38-7.11-10.68-3.71-2.49-8.88-3.73-15.53-3.73-7.36,0-13,1.42-16.94,4.26-3.94,2.84-5.91,6.94-5.91,12.29,0,3.94,1.21,7.05,3.63,9.34,2.42,2.29,6.24,3.99,11.47,5.08l11.13,2.23c2.32.45,3.99,1.07,4.99,1.84,1,.78,1.5,1.84,1.5,3.19,0,1.81-.83,3.16-2.51,4.06-1.68.91-4.03,1.35-7.07,1.35-2.52,0-4.49-.29-5.91-.87-1.42-.58-2.42-1.27-3-2.08-.57-.81-.87-1.56-.87-2.28v-.39h-12.26c-.6,0-1.06.59-.9,1.18,1.31,4.82,3.71,8.38,7.21,10.68,3.77,2.48,9.02,3.73,15.73,3.73,7.42,0,13.11-1.44,17.08-4.31,3.96-2.87,5.95-6.95,5.95-12.24,0-4-1.21-7.14-3.62-9.44Z"/>
  </g>
</svg>