<?xml version="1.0" encoding="UTF-8"?>
<svg id="Layer_2" data-name="Layer 2" xmlns="http://www.w3.org/2000/svg" viewBox="0 0 83.97 20.2">
  <defs>
    <style>
      .cls-1 {
        fill: #fff;
      }
    </style>
  </defs>
  <g id="Layer_1-2" data-name="Layer 1">
    <path class="cls-1" d="M10.1,20.2C4.53,20.2,0,15.67,0,10.1S4.53,0,10.1,0s10.1,4.53,10.1,10.1-4.53,10.1-10.1,10.1ZM11.21,17.91c2.34-.33,4.43-1.72,5.65-3.74-1.57.77-3.56,1.25-5.65,1.38v2.36ZM3.34,14.17c1.22,2.02,3.31,3.41,5.65,3.74v-2.36c-2.09-.12-4.08-.61-5.65-1.38ZM11.21,13.34c4.15-.28,6.79-2.1,6.79-3.24s-2.64-2.96-6.79-3.24v6.49ZM8.99,6.86c-4.15.28-6.79,2.1-6.79,3.24s2.64,2.96,6.79,3.24v-6.49ZM11.21,4.65c2.09.12,4.08.61,5.65,1.38-1.22-2.02-3.31-3.41-5.65-3.74v2.36ZM8.99,2.29c-2.34.33-4.43,1.72-5.65,3.74,1.57-.77,3.56-1.25,5.65-1.38v-2.36Z"/>
    <path class="cls-1" d="M10.1.1C4.58.1.1,4.58.1,10.1s4.48,10,10,10,10-4.48,10-10S15.62.1,10.1.1ZM11.11,13.45v-6.7c4.24.26,6.99,2.1,6.99,3.35s-2.75,3.09-6.99,3.35ZM2.1,10.1c0-1.25,2.75-3.09,6.99-3.35v6.7c-4.24-.26-6.99-2.1-6.99-3.35ZM17.12,6.27c-1.58-.84-3.67-1.4-6.01-1.52v-2.57c2.59.33,4.8,1.9,6.01,4.1ZM9.09,2.17v2.57c-2.33.13-4.43.69-6.01,1.52,1.21-2.2,3.41-3.77,6.01-4.1ZM3.08,13.93c1.58.84,3.67,1.4,6.01,1.52v2.57c-2.59-.33-4.8-1.9-6.01-4.1ZM11.11,18.03v-2.57c2.33-.13,4.43-.69,6.01-1.52-1.21,2.2-3.41,3.77-6.01,4.1Z"/>
    <path class="cls-1" d="M22.31,19.47L28.41,1.4h4.58l6.13,18.07h-3.77l-4.48-14.27h-.5l-4.45,14.27h-3.61ZM25.61,15.52l.08-2.83h9.74l.08,2.83h-9.9Z"/>
    <path class="cls-1" d="M37.83,8.08v-2.59h10.03v2.59h-10.03ZM42.73,19.47c-1.5,0-2.25-.75-2.25-2.25V1.51h3.64v15.37h3.74v2.59h-5.13Z"/>
    <path class="cls-1" d="M52.16,19.47c-1.48,0-2.22-.75-2.22-2.25V.57h3.61v16.31h2.7v2.59h-4.09Z"/>
    <path class="cls-1" d="M62.08,19.73c-1.38,0-2.46-.36-3.25-1.07-.79-.71-1.18-1.69-1.18-2.93s.43-2.27,1.28-3c.85-.72,2.1-1.17,3.74-1.32l3.74-.37v2.3l-2.64.24c-.85.09-1.47.26-1.85.52s-.56.65-.56,1.15v.24c0,.49.2.87.61,1.14.41.27.98.4,1.72.4,1.82,0,2.72-.73,2.72-2.2v-4.22c0-.91-.19-1.57-.58-1.99-.38-.42-.99-.63-1.81-.63-.54,0-.98.08-1.32.24-.34.16-.59.34-.75.54-.16.2-.23.39-.23.56v.1h-3.69c.65-2.81,2.67-4.22,6.08-4.22,1.94,0,3.41.45,4.41,1.36s1.51,2.23,1.51,3.98v8.9h-3.33v-2.38h-.5c-.31.86-.81,1.51-1.49,1.96-.68.45-1.56.68-2.65.68Z"/>
    <path class="cls-1" d="M77.74,19.73c-1.82,0-3.23-.34-4.26-1.01-1.02-.67-1.7-1.74-2.03-3.21h3.64v.1c0,.19.08.4.23.62.16.22.43.41.81.56.38.16.92.24,1.6.24.82,0,1.46-.12,1.91-.37.45-.24.68-.61.68-1.1,0-.37-.13-.65-.4-.86-.27-.21-.72-.38-1.35-.5l-3.01-.6c-1.41-.3-2.45-.76-3.1-1.37-.65-.62-.98-1.46-.98-2.53,0-1.45.53-2.56,1.6-3.33,1.06-.77,2.59-1.15,4.58-1.15,1.8,0,3.2.34,4.2,1.01s1.67,1.74,2,3.21h-3.64v-.1c0-.19-.08-.4-.23-.61-.16-.22-.42-.41-.79-.56-.37-.16-.88-.24-1.54-.24-.8,0-1.42.12-1.86.37-.43.25-.65.61-.65,1.1,0,.37.13.65.39.85.26.2.7.37,1.31.51l3.01.6c1.43.28,2.47.73,3.13,1.35.65.62.98,1.47.98,2.55,0,1.43-.54,2.54-1.61,3.31-1.07.78-2.61,1.17-4.62,1.17Z"/>
  </g>
</svg>