<?xml version="1.0" encoding="UTF-8"?>
<svg id="Layer_2" data-name="Layer 2" xmlns="http://www.w3.org/2000/svg" viewBox="0 0 435.39 100.3">
  <defs>
    <style>
      .cls-1 {
        fill: #fff;
      }
    </style>
  </defs>
  <g id="Layer_1-2" data-name="Layer 1">
    <g>
      <path class="cls-1" d="M114.56,98l30.29-89.7h22.75l30.42,89.7h-18.72l-22.23-70.85h-2.47l-22.1,70.85h-17.94ZM130.94,78.37l.39-14.04h48.36l.39,14.04h-49.14Z"/>
      <path class="cls-1" d="M198.15,41.45v-12.87h49.79v12.87h-49.79ZM222.46,98c-7.46,0-11.18-3.73-11.18-11.18V8.82h18.07v76.31h18.59v12.87h-25.48Z"/>
      <path class="cls-1" d="M271.47,98c-7.37,0-11.05-3.73-11.05-11.18V4.14h17.94v80.99h13.39v12.87h-20.28Z"/>
      <path class="cls-1" d="M320.86,99.3c-6.85,0-12.22-1.77-16.12-5.33-3.9-3.55-5.85-8.41-5.85-14.56s2.12-11.29,6.37-14.89c4.25-3.6,10.44-5.78,18.59-6.56l18.59-1.82v11.44l-13.13,1.17c-4.25.43-7.3,1.3-9.17,2.6-1.86,1.3-2.79,3.21-2.79,5.72v1.17c0,2.43,1.02,4.31,3.05,5.65,2.04,1.34,4.88,2.02,8.52,2.02,9.01,0,13.52-3.64,13.52-10.92v-20.93c0-4.51-.95-7.8-2.86-9.88-1.91-2.08-4.9-3.12-8.97-3.12-2.69,0-4.88.39-6.56,1.17-1.69.78-2.92,1.67-3.71,2.67-.78,1-1.17,1.93-1.17,2.79v.52h-18.33c3.21-13.95,13.26-20.93,30.16-20.93,9.62,0,16.92,2.25,21.9,6.76,4.98,4.51,7.48,11.09,7.48,19.76v44.2h-16.51v-11.83h-2.47c-1.56,4.25-4.03,7.5-7.41,9.75-3.38,2.25-7.76,3.38-13.13,3.38Z"/>
      <path class="cls-1" d="M404.45,99.3c-9.01,0-16.05-1.67-21.12-5-5.07-3.34-8.43-8.65-10.08-15.92h18.07v.52c0,.95.39,1.97,1.17,3.05.78,1.08,2.12,2.02,4.03,2.8,1.91.78,4.55,1.17,7.93,1.17,4.07,0,7.24-.61,9.49-1.82,2.25-1.21,3.38-3.03,3.38-5.46,0-1.82-.67-3.25-2.01-4.29-1.34-1.04-3.58-1.86-6.7-2.47l-14.95-2.99c-7.02-1.47-12.15-3.75-15.4-6.82-3.25-3.08-4.88-7.26-4.88-12.55,0-7.19,2.64-12.7,7.93-16.51,5.29-3.81,12.87-5.72,22.75-5.72,8.92,0,15.88,1.67,20.87,5.01,4.98,3.34,8.3,8.65,9.94,15.92h-18.07v-.52c0-.95-.39-1.97-1.17-3.06-.78-1.08-2.08-2.01-3.9-2.79-1.82-.78-4.38-1.17-7.67-1.17-3.99,0-7.06.61-9.23,1.82-2.17,1.21-3.25,3.03-3.25,5.46,0,1.82.65,3.23,1.95,4.22,1.3,1,3.47,1.84,6.5,2.54l14.95,2.99c7.11,1.39,12.29,3.62,15.54,6.69,3.25,3.08,4.88,7.3,4.88,12.67,0,7.11-2.67,12.59-8,16.45-5.33,3.86-12.98,5.78-22.95,5.78Z"/>
    </g>
    <path class="cls-1" d="M69.64,96.35c6.06-2.63,11.37-6.23,15.92-10.78s8.15-9.86,10.79-15.92c2.63-6.06,3.95-12.54,3.95-19.44s-1.32-13.39-3.95-19.49c-2.64-6.1-6.23-11.43-10.79-15.99s-9.86-8.14-15.92-10.78c-6.06-2.63-12.53-3.95-19.43-3.95s-13.39,1.32-19.49,3.95c-6.11,2.64-11.43,6.23-15.99,10.78-4.55,4.56-8.15,9.89-10.78,15.99-2.63,6.1-3.95,12.6-3.95,19.49s1.32,13.38,3.95,19.44,6.23,11.36,10.78,15.92c4.56,4.55,9.88,8.15,15.99,10.78,6.1,2.63,12.59,3.95,19.49,3.95s13.37-1.32,19.43-3.95ZM81.11,75.66c-3.09,3.64-6.72,6.67-10.9,9.09v-14.79c3.17-.75,6.24-1.69,9.21-2.82,2.97-1.13,5.83-2.45,8.59-3.95-1.51,4.68-3.8,8.84-6.9,12.47ZM80.61,44.51c3.26,1.59,6.4,3.47,9.4,5.64-3,2.17-6.14,4.05-9.4,5.64-3.26,1.59-6.73,2.89-10.4,3.89v-19.06c3.67,1.01,7.14,2.3,10.4,3.89ZM40.12,11.29c1.67-.42,3.32-.73,4.95-.94,1.63-.21,3.32-.32,5.08-.32s3.45.11,5.07.32c1.63.21,3.29.52,4.96.94v17.05c-1.67-.25-3.33-.44-4.96-.57-1.62-.12-3.32-.19-5.07-.19s-3.45.07-5.08.19c-1.63.13-3.28.32-4.95.57V11.29ZM19.18,24.64c3.09-3.64,6.73-6.67,10.91-9.09v14.79c-3.18.76-6.25,1.7-9.22,2.82-2.96,1.13-5.83,2.45-8.58,3.95,1.5-4.68,3.8-8.84,6.89-12.47ZM79.42,33.16c-2.97-1.12-6.04-2.06-9.21-2.82v-14.79c4.18,2.42,7.81,5.45,10.9,9.09,3.1,3.63,5.39,7.79,6.9,12.47-2.76-1.5-5.62-2.82-8.59-3.95ZM19.68,55.79c-3.26-1.59-6.39-3.47-9.4-5.64,3.01-2.17,6.14-4.05,9.4-5.64,3.26-1.59,6.73-2.88,10.41-3.89v19.06c-3.68-1-7.15-2.3-10.41-3.89ZM19.18,75.66c-3.09-3.63-5.39-7.79-6.89-12.47,2.75,1.5,5.62,2.82,8.58,3.95,2.97,1.13,6.04,2.07,9.22,2.82v14.79c-4.18-2.42-7.82-5.45-10.91-9.09ZM45.07,89.96c-1.63-.21-3.28-.53-4.95-.94v-17.05c1.67.25,3.32.43,4.95.56,1.63.12,3.32.19,5.08.19s3.45-.07,5.07-.19c1.63-.13,3.29-.31,4.96-.56v17.05c-1.67.41-3.33.73-4.96.94-1.62.2-3.32.31-5.07.31s-3.45-.11-5.08-.31Z"/>
  </g>
</svg>