<?xml version="1.0" encoding="UTF-8"?>
<svg id="Layer_2" data-name="Layer 2" xmlns="http://www.w3.org/2000/svg" viewBox="0 0 1129.87 715.6">
  <defs>
    <style>
      .cls-1 {
        fill: #fff;
      }
    </style>
  </defs>
  <path class="cls-1" d="M98.05,357.82c0-22.89,6.24-39.4,18.75-49.54,12.5-10.14,30.35-15.22,53.56-15.22s40.61,4.71,53.19,14.12c12.58,9.41,18.87,24.99,18.87,46.74v6.82h-109.8v4.87c0,11.69,3.2,20.17,9.62,25.44,6.41,5.27,15.78,7.91,28.12,7.91,10.71,0,19.03-1.5,24.95-4.5,5.92-3,9.94-7.67,12.05-14h34.33c-3.41,14.45-11.16,24.99-23.25,31.65-12.09,6.66-28.12,9.98-48.08,9.98-23.21,0-41.06-4.91-53.56-14.73-12.5-9.82-18.74-26.33-18.74-49.54ZM170.35,315.7c-11.2,0-20.13,2.07-26.78,6.21-6.66,4.14-10.31,11.08-10.96,20.81h75.47c-.49-9.74-3.77-16.68-9.86-20.81-6.08-4.14-15.38-6.21-27.88-6.21h0Z"/>
  <path class="cls-1" d="M251.33,385.33c0-11.69,4.14-20.81,12.42-27.39,8.28-6.57,22.07-10.26,41.39-11.08l51.86-1.7v-4.14c0-9.09-2.72-15.54-8.16-19.36-5.44-3.81-13.67-5.72-24.71-5.72-9.74,0-17.33,1.3-22.76,3.9-5.44,2.6-8.89,6.98-10.34,13.15h-35.3c1.95-13.15,8.52-23.09,19.72-29.82,11.2-6.73,27.42-10.1,48.69-10.1,22.72,0,39.72,3.9,51,11.69,11.28,7.79,16.92,19.88,16.92,36.27v77.9h-33.6v-20.45c-4.55,7.47-11.53,13.27-20.94,17.41-9.41,4.14-21.1,6.21-35.05,6.21-17.85,0-30.84-3.33-38.95-9.98-8.12-6.65-12.17-15.58-12.17-26.78h0ZM286.63,383.62c0,5.35,2.11,9.29,6.33,11.81,4.22,2.52,10.96,3.77,20.21,3.77,12.5,0,22.92-2.39,31.28-7.18,8.36-4.79,12.54-12.62,12.54-23.49v-4.63l-44.06,1.46c-9.09.49-15.74,1.87-19.96,4.14-4.22,2.28-6.33,6.17-6.33,11.69v2.44h0Z"/>
  <path class="cls-1" d="M401.6,380.46h35.54c.97,7.47,4.5,12.54,10.59,15.22,6.08,2.68,14.49,4.02,25.2,4.02,11.69,0,20.29-1.22,25.8-3.65,5.51-2.44,8.28-6.41,8.28-11.93,0-7.79-5.35-12.25-16.07-13.39-10.71-1.13-22.48-2.23-35.3-3.29-12.82-1.05-24.59-3.81-35.3-8.28-10.71-4.46-16.07-13.91-16.07-28.36,0-12.98,5.92-22.56,17.77-28.73,11.85-6.16,28-9.25,48.45-9.25s37.37,3.04,48.81,9.13c11.44,6.08,17.73,15.95,18.87,29.58h-35.3c-.97-6.49-4.34-10.87-10.1-13.15-5.76-2.27-13.19-3.41-22.27-3.41-10.07,0-17.85,1.14-23.37,3.41-5.52,2.28-8.28,6.08-8.28,11.44,0,7.14,5.35,11.24,16.07,12.29,10.71,1.06,22.43,2.15,35.18,3.29,12.74,1.14,24.47,4.02,35.18,8.64,10.71,4.63,16.07,14.08,16.07,28.36s-5.88,24.02-17.65,30.19c-11.77,6.17-28.69,9.25-50.76,9.25s-39.52-3.12-51.37-9.37c-11.85-6.24-18.5-16.92-19.96-32.01h0Z"/>
  <path class="cls-1" d="M554.34,442.29h15.34c7.46,0,12.98-1.06,16.55-3.17,3.57-2.11,6.98-6.57,10.23-13.39l2.44-5.35-63.06-124.16h36.52l43.82,88.61,42.6-88.61h32.14l-65.49,135.6c-6.49,13.31-13.31,22.6-20.45,27.88-7.14,5.27-17.28,7.91-30.43,7.91h-20.21v-25.32h0Z"/>
  <path class="cls-1" d="M687.59,430.61h36.03c3.08,6,7.55,10.26,13.39,12.78,5.84,2.52,13.96,3.77,24.35,3.77,14.12,0,24.06-2.72,29.82-8.16,5.76-5.44,8.64-15.46,8.64-30.06v-9.98c-5.03,6.98-11.81,12.13-20.33,15.46-8.52,3.33-18.62,4.99-30.31,4.99-20.78,0-37-4.83-48.69-14.48-11.69-9.65-17.53-25.6-17.53-47.84s5.84-38.87,17.53-48.93c11.69-10.06,27.91-15.09,48.69-15.09,12.17,0,22.6,1.74,31.28,5.23,8.68,3.49,15.54,9.13,20.57,16.92v-18.99h34.33v111.5c0,22.23-6.13,38.3-18.38,48.2-12.26,9.9-30.88,14.85-55.87,14.85-22.73,0-40.01-3.53-51.86-10.59-11.85-7.06-19.07-16.92-21.67-29.58h0ZM799.83,363.17v-13.63c0-11.69-3.37-20-10.1-24.95-6.74-4.95-16.92-7.43-30.55-7.43s-23.86,2.56-30.67,7.67c-6.82,5.11-10.22,13.51-10.22,25.2v13.88c0,11.04,3.45,19.03,10.34,23.98,6.9,4.95,17.08,7.43,30.55,7.43s24.02-2.47,30.67-7.43c6.65-4.95,9.98-13.18,9.98-24.71h0Z"/>
  <g>
    <path class="cls-1" d="M986.55,397.93c-11.92,16.46-33.61,24.1-65.23,24.1-52.44,0-76.13-19.83-76.13-64.46s23.69-64.47,76.13-64.47c31.61,0,53.31,7.64,65.23,24.1-.54,0-37.58,0-65.23,0-34.32,0-41.77,8.55-41.77,40.36s7.45,40.31,41.88,40.31c26.15,0,64.59.05,65.12.04h0Z"/>
    <path class="cls-1" d="M1031.82,357.58c0,34.59-12.86,40.19-45.27,40.36,7.28-10.06,10.91-23.43,10.91-40.36s-3.63-30.3-10.91-40.36c32.41.12,45.28,5.77,45.28,40.36Z"/>
  </g>
</svg>