<?xml version="1.0" encoding="UTF-8"?>
<svg id="Layer_1" data-name="Layer 1" xmlns="http://www.w3.org/2000/svg" viewBox="0 0 2917.35 555.99">
  <defs>
    <style>
      .cls-1 {
        fill: #fff;
        stroke-width: 0px;
      }
    </style>
  </defs>
  <path class="cls-1" d="M0,203.08C0,131.58,19.51,79.99,58.57,48.3,97.61,16.61,153.38.76,225.9.76s126.89,14.71,166.19,44.11c39.29,29.41,58.95,78.09,58.95,146.03v21.3H108v15.21c0,36.51,10.01,63.01,30.04,79.48,20.03,16.48,49.31,24.72,87.85,24.72,33.47,0,59.44-4.68,77.96-14.07,18.5-9.38,31.05-23.96,37.65-43.73h107.24c-10.65,45.14-34.87,78.09-72.64,98.88-37.78,20.8-87.85,31.18-150.22,31.18-72.52,0-128.29-15.33-167.33-46.02C19.51,327.18,0,275.59,0,203.08ZM225.9,71.49c-34.99,0-62.88,6.46-83.67,19.39-20.8,12.93-32.21,34.61-34.23,65.03h235.78c-1.52-30.42-11.79-52.1-30.8-65.03-19.01-12.93-48.05-19.39-87.09-19.39Z"/>
  <path class="cls-1" d="M478.89,289.02c0-36.51,12.93-65.03,38.79-85.57,25.86-20.54,68.95-32.06,129.3-34.61l162.01-5.32v-12.93c0-28.39-8.5-48.55-25.48-60.47-16.99-11.91-42.72-17.87-77.2-17.87-30.42,0-54.13,4.06-71.12,12.17-16.99,8.12-27.76,21.81-32.32,41.07h-110.29c6.08-41.07,26.62-72.13,61.61-93.17C589.18,11.29,639.87.76,706.31.76c70.98,0,124.09,12.17,159.34,36.51,35.24,24.34,52.86,62.12,52.86,113.33v243.39h-104.96v-63.89c-14.2,23.33-36.01,41.45-65.41,54.38-29.41,12.93-65.92,19.39-109.52,19.39-55.78,0-96.35-10.39-121.69-31.18-25.36-20.79-38.03-48.68-38.03-83.66ZM589.18,283.7c0,16.73,6.58,29.03,19.78,36.89,13.18,7.87,34.23,11.79,63.13,11.79,39.04,0,71.61-7.48,97.74-22.44,26.11-14.95,39.17-39.42,39.17-73.4v-14.45l-137.67,4.56c-28.4,1.52-49.19,5.84-62.37,12.93-13.19,7.11-19.78,19.28-19.78,36.51v7.61Z"/>
  <path class="cls-1" d="M948.37,273.81h111.05c3.04,23.33,14.07,39.17,33.09,47.54,19.01,8.37,45.26,12.55,78.72,12.55,36.51,0,63.38-3.8,80.62-11.41,17.23-7.61,25.86-20.02,25.86-37.27,0-24.34-16.73-38.28-50.2-41.83-33.47-3.54-70.24-6.96-110.29-10.27-40.06-3.29-76.82-11.91-110.29-25.86-33.47-13.94-50.2-43.47-50.2-88.61,0-40.56,18.5-70.47,55.52-89.75,37.01-19.26,87.47-28.9,151.36-28.9s116.75,9.51,152.5,28.52c35.75,19.01,55.39,49.82,58.95,92.41h-110.29c-3.04-20.27-13.57-33.96-31.56-41.07-18-7.1-41.2-10.65-69.59-10.65-31.45,0-55.78,3.55-73.02,10.65-17.24,7.11-25.86,19.01-25.86,35.75,0,22.32,16.73,35.12,50.2,38.41,33.47,3.3,70.09,6.73,109.91,10.27,39.8,3.55,76.44,12.55,109.91,27,33.47,14.45,50.2,44,50.2,88.61s-18.38,75.05-55.14,94.31c-36.77,19.28-89.63,28.9-158.58,28.9s-123.48-9.76-160.48-29.28c-37.02-19.51-57.81-52.86-62.37-100.02Z"/>
  <path class="cls-1" d="M1425.59,467h47.92c23.32,0,40.56-3.3,51.72-9.89,11.15-6.6,21.8-20.54,31.95-41.83l7.61-16.73L1367.79,10.65h114.09l136.91,276.85L1751.89,10.65h100.4l-204.6,423.65c-20.29,41.57-41.58,70.6-63.89,87.09-22.32,16.47-54,24.72-95.07,24.72h-63.13v-79.1Z"/>
  <path class="cls-1" d="M1841.9,430.49h112.57c9.63,18.75,23.58,32.06,41.83,39.93,18.25,7.86,43.6,11.79,76.06,11.79,44.11,0,75.17-8.5,93.17-25.48,17.99-16.99,27-48.3,27-93.93v-31.18c-15.72,21.81-36.89,37.91-63.51,48.3-26.62,10.4-58.18,15.59-94.69,15.59-64.91,0-115.61-15.08-152.12-45.25-36.51-30.16-54.76-79.98-54.76-149.46s18.25-121.43,54.76-152.88c36.51-31.43,87.21-47.16,152.12-47.16,38.03,0,70.6,5.45,97.74,16.35,27.12,10.91,48.55,28.52,64.27,52.86V10.65h107.24v348.35c0,69.46-19.15,119.66-57.42,150.6-38.29,30.92-96.48,46.4-174.56,46.4-71,0-125-11.03-162.01-33.09-37.02-22.06-59.59-52.86-67.69-92.41ZM2192.54,219.81v-42.59c0-36.51-10.53-62.49-31.57-77.96-21.05-15.46-52.86-23.2-95.45-23.2s-74.54,7.99-95.83,23.96c-21.3,15.97-31.94,42.21-31.94,78.72v43.35c0,34.49,10.77,59.46,32.32,74.92,21.55,15.47,53.36,23.2,95.45,23.2s75.04-7.72,95.83-23.2c20.79-15.46,31.18-41.19,31.18-77.2Z"/>
  <g>
    <path class="cls-1" d="M2775.9,328.41c-37.23,51.44-105.02,75.31-203.79,75.31-163.84,0-237.86-61.95-237.86-201.39S2408.27.92,2572.1.92c98.76,0,166.56,23.86,203.78,75.29-1.68-.02-117.42,0-203.78,0-107.21,0-130.5,26.72-130.5,126.1s23.29,125.95,130.83,125.95c81.71,0,201.79.15,203.46.14Z"/>
    <path class="cls-1" d="M2917.35,202.32c0,108.08-40.19,125.55-141.45,126.09,22.76-31.44,34.08-73.19,34.08-126.09s-11.33-94.66-34.1-126.1c101.27.39,141.47,18.02,141.47,126.1Z"/>
  </g>
</svg>