<?xml version="1.0" encoding="UTF-8"?>
<svg id="Layer_2" data-name="Layer 2" xmlns="http://www.w3.org/2000/svg" viewBox="0 0 1173.55 586.79">
  <defs>
    <style>
      .cls-1 {
        fill: #fff;
      }
    </style>
  </defs>
  <path class="cls-1" d="M76.05,168.64c-.23-78.51,49.88-121.93,142-122.29,66.42-.23,78.16,43.19,78.28,58.91.12,30.28-42.72,62.32-42.72,62.32,0,0,2.35,18.78,39.08,18.66,36.73-.12,72.41-24.41,72.17-84.97C364.63,31.57,291.75-.23,219.58,0,159.37.24-.59,8.69,0,167.47c.47,141.06,266.52,153.5,266.87,243.87.35,98.11-109.73,124.52-146.81,124.63s-52.34-26.52-52.46-41.08c-.23-79.45,78.75-101.51,78.75-101.51,0-5.87-4.58-32.27-35.21-32.27-78.86.23-110.2,68.07-109.96,134.37.23,56.33,40.02,91.54,100.11,91.3,114.89-.47,244.46-56.45,243.99-181.08-.47-116.54-268.87-147.05-269.22-237.06h0Z"/>
  <path class="cls-1" d="M1171.35,480.7c-.94-2.23-3.52-1.64-6.92,1.17-13.03,10.8-42.84,41.19-112.66,41.54-127.1.47-149.28-209.13-149.28-209.13,0,0,96.94-72.41,112.08-101.63,15.14-29.22-33.09-35.68-33.09-35.68,0,0-67.83,82.5-115.83,106.8,5.16-35.91,40.72-117.71,42.84-164.77,2.35-47.06-56.45-35.68-65.84-31.1.12,20.54-51.75,207.02-70.65,309.47-11.15,17.72-26.99,38.14-41.19,38.14-8.22,0-11.27-15.26-11.38-37.2-.12-30.4,16.66-78.98,16.55-108.56-.12-20.42-9.39-21.71-17.49-21.59-1.76,0-11.5.23-13.26.23-20.65.12-13.97-17.72-32.51-17.6-57.15.23-129.91,62.55-133.08,156.79-19.25,12.79-46.24,28.87-60.09,28.87s-18.07-13.38-18.07-24.88c-.12-20.3,32.86-140.95,32.86-140.95,0,0,41.78-10.68,60.09-14.32,13.85-2.7,17.6-3.64,23.12-10.33,5.52-6.69,15.84-20.42,24.29-32.86,8.45-12.44.12-21.95-15.49-21.95-20.54.12-75.58,13.03-75.58,13.03,0,0,26.52-113.84,26.41-116.18,0-2.35-3.05-3.52-7.39-3.52-9.98,0-27.93,5.4-39.31,9.51-17.49,6.22-31.8,27.7-34.62,37.67-2.82,9.98-22.65,88.25-22.65,88.25,0,0-105.97,36.62-120.53,42.13-.94.35-1.53,1.17-1.53,2.11s12.21,47.3,36.97,47.3c17.96-.12,69.95-21.36,69.95-21.36,0,0-26.87,106.8-26.76,142.35.12,22.88,10.8,49.52,55.28,49.41,41.54-.12,77.81-21.36,98.11-36.38,11.15,28.17,37.32,35.79,55.28,35.79,40.14-.12,71.24-32.04,75.11-36.38,5.28,12.32,17.49,36.03,45.53,35.91,15.84,0,32.27-17.96,44.48-35.09-.23,4.22-.23,7.86.12,10.8,4.81,44.24,70.53,18.19,74.05,12.09,2.23-31.92.82-97.41,13.61-137.78,16.9,137.78,81.21,230.37,196.81,229.9,64.66-.23,97.64-18.78,111.49-34.15,16.08-17.72,12.91-39.43,10.21-45.89h0ZM616.83,435.28c-55.51.23,17.02-143.76,64.31-143.88.12,18.54-.94,143.65-64.31,143.88Z"/>
  <path class="cls-1" d="M1067.37,479.41c50.11-.12,88.96-33.21,96-43.89,9.15-13.97-10.68-35.09-17.02-34.62-15.84,15.14-32.39,33.45-69.48,33.56-43.66.12-33.8-48-33.8-48,0,0,84.15,10.91,117.94-49.64,10.8-19.36,11.27-46.12,6.92-57.62-4.46-11.74-28.75-32.86-67.72-29.57-47.88,3.99-108.09,53.87-121.35,113.84-10.68,48.12,9.39,116.3,88.49,115.95h0ZM1120.77,277.55c7.86-.23,7.16,12.67,5.05,26.29-2.93,18.43-28.28,65.13-76.4,63.37,3.29-27.23,39.08-88.49,71.35-89.66h0Z"/>
</svg>