<?xml version="1.0" encoding="UTF-8"?>
<svg id="Layer_2" data-name="Layer 2" xmlns="http://www.w3.org/2000/svg" viewBox="0 0 1129.87 715.6">
  <defs>
    <style>
      .cls-1 {
        fill: #fff;
        fill-rule: evenodd;
      }
    </style>
  </defs>
  <path class="cls-1" d="M248.01,255.93h67.91v45.27h22.64v-22.64h22.64v-22.64h67.91v67.91h-22.64v22.64h-22.64v22.64h22.64v22.64h22.64v67.91h-67.91v-22.64h-22.64v-22.64h-22.64v45.27h-67.91v-203.74ZM700.76,255.93h67.91v45.27h22.64v-22.64h22.64v-22.64h67.91v67.91h-22.64v22.64h-22.64v22.64h22.64v22.64h22.64v67.91h-67.91v-22.64h-22.64v-22.64h-22.64v45.27h-67.91v-203.74ZM451.75,255.93h67.91v203.74h-67.91v-203.74ZM610.21,255.93h-45.27v22.64h-22.64v158.46h22.64v22.64h113.19v-67.91h-67.91v-67.91h67.91v-67.92h-67.92Z"/>
</svg>