<?xml version="1.0" encoding="UTF-8"?>
<svg id="Layer_2" data-name="Layer 2" xmlns="http://www.w3.org/2000/svg" viewBox="0 0 1129.87 715.6">
  <defs>
    <style>
      .cls-1 {
        fill: #fff;
      }
    </style>
  </defs>
  <g id="M">
    <path class="cls-1" d="M330.2,311.59c-5.52,1.79-10.4,4.77-14.63,8.76l-32.49,31.04c-2.67,2.56-6.86,2.56-9.53,0l-32.49-31.04c-4.19-3.99-9.11-6.97-14.63-8.76-3.91-1.28-7.96-1.92-12.06-1.92h-33.31v114.07h29.04v-85.14h4.33c2.48,0,4.83.92,6.58,2.66l33.96,32.46c4.56,4.36,10.49,6.74,16.8,6.74h13.12c6.3,0,12.24-2.38,16.8-6.74l33.96-32.46c1.79-1.7,4.14-2.66,6.63-2.66h4.28v85.14h29.04v-114.07h-33.31c-4.1,0-8.19.64-12.06,1.92h-.02Z"/>
  </g>
  <g id="O">
    <path class="cls-1" d="M530.39,309.67h-103.21c-19.83,0-35.94,16.05-35.94,35.81v42.45c0,19.76,16.11,35.81,35.94,35.81h103.21c19.83,0,35.94-16.05,35.94-35.81v-42.45c0-19.76-16.1-35.81-35.94-35.81ZM537.29,387.93c0,3.81-3.08,6.88-6.9,6.88h-103.21c-3.82,0-6.91-3.07-6.91-6.88v-42.45c0-3.81,3.08-6.88,6.91-6.88h103.21c3.82,0,6.9,3.07,6.9,6.88v42.45Z"/>
  </g>
  <g id="O-2">
    <path class="cls-1" d="M721.85,309.67h-103.39c-19.87,0-36,16.07-36,35.87v42.52c0,19.8,16.13,35.87,36,35.87h103.39c19.87,0,36-16.07,36-35.87v-42.52c0-19.8-16.13-35.87-36-35.87ZM728.76,388.11c0,3.81-3.08,6.89-6.91,6.89h-103.39c-3.82,0-6.91-3.08-6.91-6.89v-42.53c0-3.82,3.08-6.89,6.91-6.89h103.39c3.82,0,6.91,3.08,6.91,6.89v42.53h0Z"/>
  </g>
  <g id="N">
    <path class="cls-1" d="M919.77,309.67v85.14h-4.32c-2.48,0-4.83-.91-6.63-2.66l-75.15-71.8c-7.23-6.88-16.71-10.68-26.69-10.68h-33.31v114.07h29.04v-85.14h4.32c2.48,0,4.83.92,6.63,2.66l75.15,71.8c7.23,6.88,16.71,10.68,26.69,10.68h33.31v-114.07h-29.04Z"/>
  </g>
</svg>