<?xml version="1.0" encoding="UTF-8"?>
<svg id="Layer_2" data-name="Layer 2" xmlns="http://www.w3.org/2000/svg" viewBox="0 0 1018 151.5">
  <defs>
    <style>
      .cls-1 {
        fill: #fff;
      }
    </style>
  </defs>
  <g id="M">
    <path class="cls-1" d="M197.75,2.55c-7.32,2.37-13.79,6.32-19.4,11.61l-43.08,41.16c-3.54,3.4-9.09,3.4-12.63,0L79.56,14.16c-5.55-5.29-12.08-9.24-19.4-11.61-5.19-1.7-10.56-2.55-15.99-2.55H0v151.25h38.5V38.36h5.74c3.29,0,6.41,1.22,8.73,3.53l45.03,43.04c6.04,5.78,13.91,8.94,22.27,8.94h17.39c8.36,0,16.23-3.16,22.27-8.94l45.03-43.04c2.38-2.25,5.49-3.53,8.79-3.53h5.68v112.89h38.5V0h-44.17c-5.43,0-10.86.85-15.99,2.55Z"/>
  </g>
  <g id="O">
    <path class="cls-1" d="M463.2,0h-136.85c-26.3,0-47.66,21.28-47.66,47.48v56.29c0,26.2,21.36,47.48,47.66,47.48h136.85c26.3,0,47.65-21.28,47.65-47.48v-56.29C510.85,21.28,489.5,0,463.2,0ZM472.35,103.77c0,5.05-4.09,9.12-9.15,9.12h-136.85c-5.07,0-9.16-4.07-9.16-9.12v-56.29c0-5.05,4.09-9.12,9.16-9.12h136.85c5.06,0,9.15,4.07,9.15,9.12v56.29Z"/>
  </g>
  <g id="O-2" data-name="O">
    <path class="cls-1" d="M717.06,0h-137.09c-26.34,0-47.73,21.31-47.73,47.56v56.38c0,26.25,21.39,47.56,47.73,47.56h137.09c26.34,0,47.73-21.31,47.73-47.56v-56.38C764.79,21.31,743.4,0,717.06,0ZM726.22,104.01c0,5.05-4.09,9.13-9.16,9.13h-137.09c-5.07,0-9.16-4.08-9.16-9.13v-56.39c0-5.06,4.09-9.14,9.16-9.14h137.09c5.07,0,9.16,4.08,9.16,9.14v56.39Z"/>
  </g>
  <g id="N">
    <path class="cls-1" d="M979.5,0v112.89h-5.73c-3.29,0-6.41-1.21-8.79-3.53l-99.64-95.2c-9.58-9.12-22.15-14.16-35.39-14.16h-44.17v151.25h38.5V38.36h5.73c3.29,0,6.41,1.22,8.79,3.53l99.64,95.2c9.58,9.12,22.15,14.16,35.39,14.16h44.17V0h-38.5Z"/>
  </g>
</svg>