<?xml version="1.0" encoding="UTF-8"?>
<svg id="Layer_2" data-name="Layer 2" xmlns="http://www.w3.org/2000/svg" viewBox="0 0 1129.87 715.6">
  <defs>
    <style>
      .cls-1 {
        fill: #fff;
      }
    </style>
  </defs>
  <path class="cls-1" d="M277.16,282.51c-.13-44.24,28.1-68.7,80.01-68.9,37.42-.13,44.04,24.33,44.11,33.19.07,17.06-24.07,35.11-24.07,35.11,0,0,1.32,10.58,22.02,10.51,20.69-.07,40.8-13.75,40.66-47.87-.13-39.27-41.19-57.19-81.86-57.06-33.92.14-124.05,4.9-123.72,94.36.26,79.48,150.17,86.49,150.36,137.4.2,55.28-61.83,70.16-82.72,70.22-20.89.06-29.49-14.94-29.56-23.15-.13-44.76,44.37-57.19,44.37-57.19,0-3.31-2.58-18.18-19.84-18.18-44.43.13-62.09,38.35-61.96,75.71.13,31.74,22.55,51.58,56.41,51.44,64.73-.26,137.74-31.81,137.47-102.03-.26-65.66-151.49-82.85-151.69-133.57h0Z"/>
  <path class="cls-1" d="M894.29,458.34c-.53-1.26-1.98-.92-3.9.66-7.34,6.09-24.14,23.21-63.48,23.41-71.61.26-84.11-117.83-84.11-117.83,0,0,54.62-40.8,63.15-57.26,8.53-16.46-18.64-20.1-18.64-20.1,0,0-38.22,46.48-65.26,60.17,2.91-20.23,22.94-66.32,24.14-92.84,1.32-26.52-31.81-20.1-37.1-17.52.07,11.57-29.16,116.64-39.81,174.37-6.28,9.98-15.21,21.49-23.21,21.49-4.63,0-6.35-8.6-6.41-20.96-.07-17.13,9.39-44.5,9.32-61.17-.07-11.51-5.29-12.23-9.85-12.16-.99,0-6.48.13-7.47.13-11.63.07-7.87-9.98-18.32-9.92-32.2.13-73.2,35.24-74.98,88.34-10.85,7.21-26.05,16.27-33.86,16.27s-10.18-7.54-10.18-14.02c-.07-11.44,18.51-79.42,18.51-79.42,0,0,23.54-6.02,33.86-8.07,7.8-1.52,9.92-2.05,13.03-5.82s8.92-11.51,13.69-18.51c4.76-7.01.07-12.37-8.73-12.37-11.57.07-42.58,7.34-42.58,7.34,0,0,14.94-64.14,14.88-65.46,0-1.32-1.72-1.98-4.16-1.98-5.62,0-15.74,3.04-22.15,5.36-9.85,3.5-17.92,15.61-19.51,21.22-1.59,5.62-12.76,49.72-12.76,49.72,0,0-59.71,20.63-67.91,23.74-.53.2-.86.66-.86,1.19s6.88,26.65,20.83,26.65c10.12-.07,39.41-12.03,39.41-12.03,0,0-15.14,60.17-15.08,80.2.07,12.89,6.09,27.9,31.15,27.84,23.41-.07,43.84-12.03,55.28-20.5,6.28,15.87,21.03,20.17,31.15,20.17,22.62-.07,40.14-18.05,42.32-20.5,2.97,6.94,9.85,20.3,25.65,20.23,8.92,0,18.18-10.12,25.06-19.77-.13,2.38-.13,4.43.07,6.09,2.71,24.93,39.74,10.25,41.72,6.81,1.26-17.98.46-54.88,7.67-77.63,9.52,77.63,45.76,129.8,110.89,129.53,36.43-.13,55.01-10.58,62.82-19.24,9.06-9.98,7.27-22.22,5.75-25.86h-.02ZM581.86,432.74c-31.28.13,9.59-81,36.23-81.07.07,10.45-.53,80.94-36.23,81.07Z"/>
  <path class="cls-1" d="M835.7,457.61c28.23-.07,50.12-18.71,54.09-24.73,5.16-7.87-6.02-19.77-9.59-19.51-8.92,8.53-18.25,18.85-39.15,18.91-24.6.07-19.04-27.04-19.04-27.04,0,0,47.41,6.15,66.45-27.97,6.09-10.91,6.35-25.99,3.9-32.46-2.51-6.61-16.2-18.51-38.16-16.66-26.98,2.25-60.9,30.35-68.37,64.14-6.02,27.11,5.29,65.53,49.86,65.33h.01ZM865.79,343.87c4.43-.13,4.03,7.14,2.85,14.81-1.65,10.38-15.93,36.7-43.05,35.7,1.85-15.34,22.02-49.86,40.2-50.52h0Z"/>
</svg>